<mxfile host="app.diagrams.net" agent="Mozilla/5.0 (Windows NT 10.0; Win64; x64) AppleWebKit/537.36 (KHTML, like Gecko) Chrome/131.0.0.0 Safari/537.36" version="26.0.4">
  <diagram id="C5RBs43oDa-KdzZeNtuy" name="Page-1">
    <mxGraphModel dx="1358" dy="640" grid="1" gridSize="10" guides="1" tooltips="1" connect="1" arrows="1" fold="1" page="1" pageScale="1" pageWidth="2000" pageHeight="2000" math="0" shadow="0">
      <root>
        <mxCell id="WIyWlLk6GJQsqaUBKTNV-0" />
        <mxCell id="WIyWlLk6GJQsqaUBKTNV-1" parent="WIyWlLk6GJQsqaUBKTNV-0" />
        <mxCell id="yg45glwbb_iOi49nHkMK-54" value="USER" style="swimlane;fontStyle=1;align=center;verticalAlign=top;childLayout=stackLayout;horizontal=1;startSize=26;horizontalStack=0;resizeParent=1;resizeParentMax=0;resizeLast=0;collapsible=1;marginBottom=0;whiteSpace=wrap;html=1;fontSize=15;" parent="WIyWlLk6GJQsqaUBKTNV-1" vertex="1">
          <mxGeometry x="180" y="70" width="160" height="490" as="geometry" />
        </mxCell>
        <mxCell id="yg45glwbb_iOi49nHkMK-55" value="&lt;div&gt;- id&lt;/div&gt;- username : string&lt;div&gt;- email : string&lt;/div&gt;&lt;div&gt;- password&lt;/div&gt;&lt;div&gt;- profile_picture&lt;/div&gt;&lt;div&gt;- created_at : date&lt;/div&gt;&lt;div&gt;- updated_at&lt;/div&gt;&lt;div&gt;&lt;br&gt;&lt;/div&gt;" style="text;strokeColor=none;fillColor=none;align=left;verticalAlign=top;spacingLeft=4;spacingRight=4;overflow=hidden;rotatable=0;points=[[0,0.5],[1,0.5]];portConstraint=eastwest;whiteSpace=wrap;html=1;fontSize=15;" parent="yg45glwbb_iOi49nHkMK-54" vertex="1">
          <mxGeometry y="26" width="160" height="144" as="geometry" />
        </mxCell>
        <mxCell id="yg45glwbb_iOi49nHkMK-56" value="" style="line;strokeWidth=1;fillColor=none;align=left;verticalAlign=middle;spacingTop=-1;spacingLeft=3;spacingRight=3;rotatable=0;labelPosition=right;points=[];portConstraint=eastwest;strokeColor=inherit;fontSize=15;" parent="yg45glwbb_iOi49nHkMK-54" vertex="1">
          <mxGeometry y="170" width="160" height="8" as="geometry" />
        </mxCell>
        <mxCell id="yg45glwbb_iOi49nHkMK-57" value="&lt;div&gt;logout()&lt;/div&gt;&lt;div&gt;updateProfil()&lt;/div&gt;&lt;div&gt;&lt;br&gt;&lt;/div&gt;&lt;div&gt;createBlog()&lt;/div&gt;&lt;div&gt;deleteBlog()&lt;/div&gt;&lt;div&gt;updateBlog()&lt;/div&gt;&lt;div&gt;showBlog(filtrage)&lt;/div&gt;&lt;div&gt;getUserBlogs()&lt;/div&gt;&lt;div&gt;&lt;br&gt;&lt;/div&gt;&lt;div&gt;addComment()&lt;/div&gt;&lt;div&gt;deleteComment()&lt;/div&gt;&lt;div&gt;editComment()&lt;/div&gt;" style="text;strokeColor=none;fillColor=none;align=left;verticalAlign=top;spacingLeft=4;spacingRight=4;overflow=hidden;rotatable=0;points=[[0,0.5],[1,0.5]];portConstraint=eastwest;whiteSpace=wrap;html=1;fontSize=15;" parent="yg45glwbb_iOi49nHkMK-54" vertex="1">
          <mxGeometry y="178" width="160" height="312" as="geometry" />
        </mxCell>
        <mxCell id="yg45glwbb_iOi49nHkMK-58" value="Admin" style="swimlane;fontStyle=1;align=center;verticalAlign=top;childLayout=stackLayout;horizontal=1;startSize=26;horizontalStack=0;resizeParent=1;resizeParentMax=0;resizeLast=0;collapsible=1;marginBottom=0;whiteSpace=wrap;html=1;fontSize=15;" parent="WIyWlLk6GJQsqaUBKTNV-1" vertex="1">
          <mxGeometry x="20" y="744" width="160" height="310" as="geometry" />
        </mxCell>
        <mxCell id="yg45glwbb_iOi49nHkMK-59" value="- created_by" style="text;strokeColor=none;fillColor=none;align=left;verticalAlign=top;spacingLeft=4;spacingRight=4;overflow=hidden;rotatable=0;points=[[0,0.5],[1,0.5]];portConstraint=eastwest;whiteSpace=wrap;html=1;fontSize=15;" parent="yg45glwbb_iOi49nHkMK-58" vertex="1">
          <mxGeometry y="26" width="160" height="26" as="geometry" />
        </mxCell>
        <mxCell id="yg45glwbb_iOi49nHkMK-60" value="" style="line;strokeWidth=1;fillColor=none;align=left;verticalAlign=middle;spacingTop=-1;spacingLeft=3;spacingRight=3;rotatable=0;labelPosition=right;points=[];portConstraint=eastwest;strokeColor=inherit;fontSize=15;" parent="yg45glwbb_iOi49nHkMK-58" vertex="1">
          <mxGeometry y="52" width="160" height="8" as="geometry" />
        </mxCell>
        <mxCell id="yg45glwbb_iOi49nHkMK-61" value="+&amp;nbsp;&lt;code&gt;manageUsers()&lt;/code&gt;&lt;div&gt;+&amp;nbsp;&lt;code&gt;manageBlogs()&lt;/code&gt;.&lt;/div&gt;&lt;div&gt;+ getAllUsers(filter)&lt;/div&gt;" style="text;strokeColor=none;fillColor=none;align=left;verticalAlign=top;spacingLeft=4;spacingRight=4;overflow=hidden;rotatable=0;points=[[0,0.5],[1,0.5]];portConstraint=eastwest;whiteSpace=wrap;html=1;fontSize=15;" parent="yg45glwbb_iOi49nHkMK-58" vertex="1">
          <mxGeometry y="60" width="160" height="250" as="geometry" />
        </mxCell>
        <mxCell id="yg45glwbb_iOi49nHkMK-62" value="Blog" style="swimlane;fontStyle=1;align=center;verticalAlign=top;childLayout=stackLayout;horizontal=1;startSize=26;horizontalStack=0;resizeParent=1;resizeParentMax=0;resizeLast=0;collapsible=1;marginBottom=0;whiteSpace=wrap;html=1;fontSize=15;" parent="WIyWlLk6GJQsqaUBKTNV-1" vertex="1">
          <mxGeometry x="850" y="310" width="160" height="294" as="geometry" />
        </mxCell>
        <mxCell id="yg45glwbb_iOi49nHkMK-63" value="&lt;div&gt;- id&lt;/div&gt;- user_id&lt;div&gt;- title&lt;/div&gt;&lt;div&gt;- content&lt;/div&gt;&lt;div&gt;- picture_path&lt;/div&gt;&lt;div&gt;- create_at&lt;/div&gt;&lt;div&gt;- update_at&lt;/div&gt;" style="text;strokeColor=none;fillColor=none;align=left;verticalAlign=top;spacingLeft=4;spacingRight=4;overflow=hidden;rotatable=0;points=[[0,0.5],[1,0.5]];portConstraint=eastwest;whiteSpace=wrap;html=1;fontSize=15;" parent="yg45glwbb_iOi49nHkMK-62" vertex="1">
          <mxGeometry y="26" width="160" height="234" as="geometry" />
        </mxCell>
        <mxCell id="yg45glwbb_iOi49nHkMK-64" value="" style="line;strokeWidth=1;fillColor=none;align=left;verticalAlign=middle;spacingTop=-1;spacingLeft=3;spacingRight=3;rotatable=0;labelPosition=right;points=[];portConstraint=eastwest;strokeColor=inherit;fontSize=15;" parent="yg45glwbb_iOi49nHkMK-62" vertex="1">
          <mxGeometry y="260" width="160" height="8" as="geometry" />
        </mxCell>
        <mxCell id="yg45glwbb_iOi49nHkMK-65" value="+ method(type): type" style="text;strokeColor=none;fillColor=none;align=left;verticalAlign=top;spacingLeft=4;spacingRight=4;overflow=hidden;rotatable=0;points=[[0,0.5],[1,0.5]];portConstraint=eastwest;whiteSpace=wrap;html=1;fontSize=15;" parent="yg45glwbb_iOi49nHkMK-62" vertex="1">
          <mxGeometry y="268" width="160" height="26" as="geometry" />
        </mxCell>
        <mxCell id="yg45glwbb_iOi49nHkMK-66" value="Comments" style="swimlane;fontStyle=1;align=center;verticalAlign=top;childLayout=stackLayout;horizontal=1;startSize=26;horizontalStack=0;resizeParent=1;resizeParentMax=0;resizeLast=0;collapsible=1;marginBottom=0;whiteSpace=wrap;html=1;fontSize=15;" parent="WIyWlLk6GJQsqaUBKTNV-1" vertex="1">
          <mxGeometry x="490" y="836" width="160" height="194" as="geometry" />
        </mxCell>
        <mxCell id="yg45glwbb_iOi49nHkMK-68" value="" style="line;strokeWidth=1;fillColor=none;align=left;verticalAlign=middle;spacingTop=-1;spacingLeft=3;spacingRight=3;rotatable=0;labelPosition=right;points=[];portConstraint=eastwest;strokeColor=inherit;fontSize=15;" parent="yg45glwbb_iOi49nHkMK-66" vertex="1">
          <mxGeometry y="26" width="160" height="8" as="geometry" />
        </mxCell>
        <mxCell id="yg45glwbb_iOi49nHkMK-69" value="+ method(type): type" style="text;strokeColor=none;fillColor=none;align=left;verticalAlign=top;spacingLeft=4;spacingRight=4;overflow=hidden;rotatable=0;points=[[0,0.5],[1,0.5]];portConstraint=eastwest;whiteSpace=wrap;html=1;fontSize=15;" parent="yg45glwbb_iOi49nHkMK-66" vertex="1">
          <mxGeometry y="34" width="160" height="26" as="geometry" />
        </mxCell>
        <mxCell id="yg45glwbb_iOi49nHkMK-67" value="- article_id&lt;div&gt;- user_id&lt;/div&gt;&lt;div&gt;- content&lt;/div&gt;&lt;div&gt;- create_at&lt;/div&gt;&lt;div&gt;&amp;nbsp;- pupdate_at&lt;/div&gt;&lt;div&gt;&lt;br&gt;&lt;/div&gt;" style="text;strokeColor=none;fillColor=none;align=left;verticalAlign=top;spacingLeft=4;spacingRight=4;overflow=hidden;rotatable=0;points=[[0,0.5],[1,0.5]];portConstraint=eastwest;whiteSpace=wrap;html=1;fontSize=15;" parent="yg45glwbb_iOi49nHkMK-66" vertex="1">
          <mxGeometry y="60" width="160" height="134" as="geometry" />
        </mxCell>
        <mxCell id="yg45glwbb_iOi49nHkMK-70" value="Blogs_likes" style="swimlane;fontStyle=1;align=center;verticalAlign=top;childLayout=stackLayout;horizontal=1;startSize=26;horizontalStack=0;resizeParent=1;resizeParentMax=0;resizeLast=0;collapsible=1;marginBottom=0;whiteSpace=wrap;html=1;fontSize=15;" parent="WIyWlLk6GJQsqaUBKTNV-1" vertex="1">
          <mxGeometry x="520" y="540" width="160" height="86" as="geometry" />
        </mxCell>
        <mxCell id="yg45glwbb_iOi49nHkMK-71" value="+ field: type" style="text;strokeColor=none;fillColor=none;align=left;verticalAlign=top;spacingLeft=4;spacingRight=4;overflow=hidden;rotatable=0;points=[[0,0.5],[1,0.5]];portConstraint=eastwest;whiteSpace=wrap;html=1;fontSize=15;" parent="yg45glwbb_iOi49nHkMK-70" vertex="1">
          <mxGeometry y="26" width="160" height="26" as="geometry" />
        </mxCell>
        <mxCell id="yg45glwbb_iOi49nHkMK-72" value="" style="line;strokeWidth=1;fillColor=none;align=left;verticalAlign=middle;spacingTop=-1;spacingLeft=3;spacingRight=3;rotatable=0;labelPosition=right;points=[];portConstraint=eastwest;strokeColor=inherit;fontSize=15;" parent="yg45glwbb_iOi49nHkMK-70" vertex="1">
          <mxGeometry y="52" width="160" height="8" as="geometry" />
        </mxCell>
        <mxCell id="yg45glwbb_iOi49nHkMK-73" value="+ method(type): type" style="text;strokeColor=none;fillColor=none;align=left;verticalAlign=top;spacingLeft=4;spacingRight=4;overflow=hidden;rotatable=0;points=[[0,0.5],[1,0.5]];portConstraint=eastwest;whiteSpace=wrap;html=1;fontSize=15;" parent="yg45glwbb_iOi49nHkMK-70" vertex="1">
          <mxGeometry y="60" width="160" height="26" as="geometry" />
        </mxCell>
        <mxCell id="yg45glwbb_iOi49nHkMK-74" value="" style="endArrow=diamondThin;endFill=1;endSize=24;html=1;rounded=0;entryX=-0.021;entryY=0.166;entryDx=0;entryDy=0;entryPerimeter=0;exitX=0.437;exitY=-0.043;exitDx=0;exitDy=0;exitPerimeter=0;" parent="WIyWlLk6GJQsqaUBKTNV-1" source="yg45glwbb_iOi49nHkMK-70" target="yg45glwbb_iOi49nHkMK-63" edge="1">
          <mxGeometry width="160" relative="1" as="geometry">
            <mxPoint x="730" y="290" as="sourcePoint" />
            <mxPoint x="890" y="290" as="targetPoint" />
          </mxGeometry>
        </mxCell>
        <mxCell id="yg45glwbb_iOi49nHkMK-75" value="" style="endArrow=diamondThin;endFill=1;endSize=24;html=1;rounded=0;entryX=0.168;entryY=1.005;entryDx=0;entryDy=0;entryPerimeter=0;exitX=0.5;exitY=0;exitDx=0;exitDy=0;" parent="WIyWlLk6GJQsqaUBKTNV-1" source="yg45glwbb_iOi49nHkMK-66" target="yg45glwbb_iOi49nHkMK-65" edge="1">
          <mxGeometry width="160" relative="1" as="geometry">
            <mxPoint x="1110" y="320" as="sourcePoint" />
            <mxPoint x="1149" y="230" as="targetPoint" />
          </mxGeometry>
        </mxCell>
        <mxCell id="yg45glwbb_iOi49nHkMK-76" value="Extends" style="endArrow=block;endSize=16;endFill=0;html=1;rounded=0;exitX=0.643;exitY=-0.017;exitDx=0;exitDy=0;exitPerimeter=0;entryX=0.267;entryY=0.998;entryDx=0;entryDy=0;entryPerimeter=0;" parent="WIyWlLk6GJQsqaUBKTNV-1" source="yg45glwbb_iOi49nHkMK-58" target="yg45glwbb_iOi49nHkMK-57" edge="1">
          <mxGeometry width="160" relative="1" as="geometry">
            <mxPoint x="730" y="290" as="sourcePoint" />
            <mxPoint x="580" y="200" as="targetPoint" />
          </mxGeometry>
        </mxCell>
        <mxCell id="yg45glwbb_iOi49nHkMK-78" value="Tag" style="swimlane;fontStyle=1;align=center;verticalAlign=top;childLayout=stackLayout;horizontal=1;startSize=26;horizontalStack=0;resizeParent=1;resizeParentMax=0;resizeLast=0;collapsible=1;marginBottom=0;whiteSpace=wrap;html=1;fontSize=15;" parent="WIyWlLk6GJQsqaUBKTNV-1" vertex="1">
          <mxGeometry x="1550" y="140" width="160" height="104" as="geometry" />
        </mxCell>
        <mxCell id="yg45glwbb_iOi49nHkMK-79" value="&lt;div&gt;- id&lt;/div&gt;- tag_name" style="text;strokeColor=none;fillColor=none;align=left;verticalAlign=top;spacingLeft=4;spacingRight=4;overflow=hidden;rotatable=0;points=[[0,0.5],[1,0.5]];portConstraint=eastwest;whiteSpace=wrap;html=1;fontSize=15;" parent="yg45glwbb_iOi49nHkMK-78" vertex="1">
          <mxGeometry y="26" width="160" height="44" as="geometry" />
        </mxCell>
        <mxCell id="yg45glwbb_iOi49nHkMK-80" value="" style="line;strokeWidth=1;fillColor=none;align=left;verticalAlign=middle;spacingTop=-1;spacingLeft=3;spacingRight=3;rotatable=0;labelPosition=right;points=[];portConstraint=eastwest;strokeColor=inherit;fontSize=15;" parent="yg45glwbb_iOi49nHkMK-78" vertex="1">
          <mxGeometry y="70" width="160" height="8" as="geometry" />
        </mxCell>
        <mxCell id="yg45glwbb_iOi49nHkMK-81" value="+ method(type): type" style="text;strokeColor=none;fillColor=none;align=left;verticalAlign=top;spacingLeft=4;spacingRight=4;overflow=hidden;rotatable=0;points=[[0,0.5],[1,0.5]];portConstraint=eastwest;whiteSpace=wrap;html=1;fontSize=15;" parent="yg45glwbb_iOi49nHkMK-78" vertex="1">
          <mxGeometry y="78" width="160" height="26" as="geometry" />
        </mxCell>
        <mxCell id="yg45glwbb_iOi49nHkMK-82" value="Blog_tag" style="swimlane;fontStyle=1;align=center;verticalAlign=top;childLayout=stackLayout;horizontal=1;startSize=26;horizontalStack=0;resizeParent=1;resizeParentMax=0;resizeLast=0;collapsible=1;marginBottom=0;whiteSpace=wrap;html=1;fontSize=15;" parent="WIyWlLk6GJQsqaUBKTNV-1" vertex="1">
          <mxGeometry x="1520" y="460" width="160" height="108" as="geometry" />
        </mxCell>
        <mxCell id="yg45glwbb_iOi49nHkMK-83" value="- blog_id&lt;div&gt;- user_id&lt;/div&gt;" style="text;strokeColor=none;fillColor=none;align=left;verticalAlign=top;spacingLeft=4;spacingRight=4;overflow=hidden;rotatable=0;points=[[0,0.5],[1,0.5]];portConstraint=eastwest;whiteSpace=wrap;html=1;fontSize=15;" parent="yg45glwbb_iOi49nHkMK-82" vertex="1">
          <mxGeometry y="26" width="160" height="74" as="geometry" />
        </mxCell>
        <mxCell id="yg45glwbb_iOi49nHkMK-84" value="" style="line;strokeWidth=1;fillColor=none;align=left;verticalAlign=middle;spacingTop=-1;spacingLeft=3;spacingRight=3;rotatable=0;labelPosition=right;points=[];portConstraint=eastwest;strokeColor=inherit;fontSize=15;" parent="yg45glwbb_iOi49nHkMK-82" vertex="1">
          <mxGeometry y="100" width="160" height="8" as="geometry" />
        </mxCell>
        <mxCell id="ATo29WEv9MndZiHiaw19-0" value="" style="endArrow=diamondThin;endFill=1;endSize=24;html=1;rounded=0;exitX=0.584;exitY=0.052;exitDx=0;exitDy=0;exitPerimeter=0;" parent="WIyWlLk6GJQsqaUBKTNV-1" source="5-I84XrUvH4RlPe104iJ-8" target="yg45glwbb_iOi49nHkMK-67" edge="1">
          <mxGeometry width="160" relative="1" as="geometry">
            <mxPoint x="930" y="990" as="sourcePoint" />
            <mxPoint x="1140" y="550" as="targetPoint" />
          </mxGeometry>
        </mxCell>
        <mxCell id="ATo29WEv9MndZiHiaw19-1" value="Signal" style="swimlane;fontStyle=1;align=center;verticalAlign=top;childLayout=stackLayout;horizontal=1;startSize=26;horizontalStack=0;resizeParent=1;resizeParentMax=0;resizeLast=0;collapsible=1;marginBottom=0;whiteSpace=wrap;html=1;fontSize=15;" parent="WIyWlLk6GJQsqaUBKTNV-1" vertex="1">
          <mxGeometry x="330" y="1090" width="160" height="222" as="geometry" />
        </mxCell>
        <mxCell id="ATo29WEv9MndZiHiaw19-2" value="- resource_type&lt;div&gt;- resource_id&lt;/div&gt;&lt;div&gt;- user_id&lt;/div&gt;&lt;div&gt;- reson&amp;nbsp;&lt;/div&gt;&lt;div&gt;- created_at&lt;/div&gt;" style="text;strokeColor=none;fillColor=none;align=left;verticalAlign=top;spacingLeft=4;spacingRight=4;overflow=hidden;rotatable=0;points=[[0,0.5],[1,0.5]];portConstraint=eastwest;whiteSpace=wrap;html=1;fontSize=15;" parent="ATo29WEv9MndZiHiaw19-1" vertex="1">
          <mxGeometry y="26" width="160" height="104" as="geometry" />
        </mxCell>
        <mxCell id="ATo29WEv9MndZiHiaw19-3" value="" style="line;strokeWidth=1;fillColor=none;align=left;verticalAlign=middle;spacingTop=-1;spacingLeft=3;spacingRight=3;rotatable=0;labelPosition=right;points=[];portConstraint=eastwest;strokeColor=inherit;fontSize=15;" parent="ATo29WEv9MndZiHiaw19-1" vertex="1">
          <mxGeometry y="130" width="160" height="8" as="geometry" />
        </mxCell>
        <mxCell id="ATo29WEv9MndZiHiaw19-4" value="+ method(type): type" style="text;strokeColor=none;fillColor=none;align=left;verticalAlign=top;spacingLeft=4;spacingRight=4;overflow=hidden;rotatable=0;points=[[0,0.5],[1,0.5]];portConstraint=eastwest;whiteSpace=wrap;html=1;fontSize=15;" parent="ATo29WEv9MndZiHiaw19-1" vertex="1">
          <mxGeometry y="138" width="160" height="84" as="geometry" />
        </mxCell>
        <mxCell id="ATo29WEv9MndZiHiaw19-7" value="" style="endArrow=none;html=1;rounded=0;entryX=-0.01;entryY=0.116;entryDx=0;entryDy=0;entryPerimeter=0;exitX=1.022;exitY=0.038;exitDx=0;exitDy=0;exitPerimeter=0;" parent="WIyWlLk6GJQsqaUBKTNV-1" source="yg45glwbb_iOi49nHkMK-62" target="yg45glwbb_iOi49nHkMK-78" edge="1">
          <mxGeometry width="50" height="50" relative="1" as="geometry">
            <mxPoint x="990" y="680" as="sourcePoint" />
            <mxPoint x="1210" y="630" as="targetPoint" />
            <Array as="points">
              <mxPoint x="1240" y="290" />
            </Array>
          </mxGeometry>
        </mxCell>
        <mxCell id="ATo29WEv9MndZiHiaw19-8" value="" style="endArrow=none;dashed=1;html=1;dashPattern=1 3;strokeWidth=2;rounded=0;exitX=0.337;exitY=0.011;exitDx=0;exitDy=0;exitPerimeter=0;" parent="WIyWlLk6GJQsqaUBKTNV-1" source="yg45glwbb_iOi49nHkMK-82" edge="1">
          <mxGeometry width="50" height="50" relative="1" as="geometry">
            <mxPoint x="1050" y="680" as="sourcePoint" />
            <mxPoint x="1230" y="290" as="targetPoint" />
          </mxGeometry>
        </mxCell>
        <mxCell id="ATo29WEv9MndZiHiaw19-11" value="Database" style="swimlane;fontStyle=1;align=center;verticalAlign=top;childLayout=stackLayout;horizontal=1;startSize=26;horizontalStack=0;resizeParent=1;resizeParentMax=0;resizeLast=0;collapsible=1;marginBottom=0;whiteSpace=wrap;html=1;fontSize=15;" parent="WIyWlLk6GJQsqaUBKTNV-1" vertex="1">
          <mxGeometry x="880" y="60" width="180" height="172" as="geometry" />
        </mxCell>
        <mxCell id="ATo29WEv9MndZiHiaw19-12" value="- connection : Database" style="text;strokeColor=none;fillColor=none;align=left;verticalAlign=top;spacingLeft=4;spacingRight=4;overflow=hidden;rotatable=0;points=[[0,0.5],[1,0.5]];portConstraint=eastwest;whiteSpace=wrap;html=1;fontSize=15;" parent="ATo29WEv9MndZiHiaw19-11" vertex="1">
          <mxGeometry y="26" width="180" height="44" as="geometry" />
        </mxCell>
        <mxCell id="ATo29WEv9MndZiHiaw19-13" value="" style="line;strokeWidth=1;fillColor=none;align=left;verticalAlign=middle;spacingTop=-1;spacingLeft=3;spacingRight=3;rotatable=0;labelPosition=right;points=[];portConstraint=eastwest;strokeColor=inherit;fontSize=15;" parent="ATo29WEv9MndZiHiaw19-11" vertex="1">
          <mxGeometry y="70" width="180" height="8" as="geometry" />
        </mxCell>
        <mxCell id="ATo29WEv9MndZiHiaw19-14" value="+ c&lt;code style=&quot;color: light-dark(rgb(0, 0, 0), rgb(255, 255, 255)); background-color: transparent;&quot;&gt;onnect()&lt;/code&gt;&lt;div&gt;&lt;code style=&quot;background-color: transparent; color: light-dark(rgb(0, 0, 0), rgb(255, 255, 255));&quot;&gt;+&amp;nbsp;&lt;/code&gt;&lt;span style=&quot;background-color: transparent; color: light-dark(rgb(0, 0, 0), rgb(255, 255, 255));&quot;&gt;disconnect()&lt;/span&gt;&lt;/div&gt;&lt;div&gt;&lt;span style=&quot;background-color: transparent; color: light-dark(rgb(0, 0, 0), rgb(255, 255, 255));&quot;&gt;+ query(sql)&lt;/span&gt;&lt;/div&gt;&lt;div&gt;&lt;span style=&quot;background-color: transparent; color: light-dark(rgb(0, 0, 0), rgb(255, 255, 255));&quot;&gt;+ execute(sql, params)&lt;/span&gt;&lt;/div&gt;" style="text;strokeColor=none;fillColor=none;align=left;verticalAlign=top;spacingLeft=4;spacingRight=4;overflow=hidden;rotatable=0;points=[[0,0.5],[1,0.5]];portConstraint=eastwest;whiteSpace=wrap;html=1;fontSize=15;" parent="ATo29WEv9MndZiHiaw19-11" vertex="1">
          <mxGeometry y="78" width="180" height="94" as="geometry" />
        </mxCell>
        <mxCell id="ATo29WEv9MndZiHiaw19-19" value="Geust" style="swimlane;fontStyle=1;align=center;verticalAlign=top;childLayout=stackLayout;horizontal=1;startSize=26;horizontalStack=0;resizeParent=1;resizeParentMax=0;resizeLast=0;collapsible=1;marginBottom=0;whiteSpace=wrap;html=1;fontSize=15;" parent="WIyWlLk6GJQsqaUBKTNV-1" vertex="1">
          <mxGeometry x="520" y="10" width="160" height="190" as="geometry" />
        </mxCell>
        <mxCell id="ATo29WEv9MndZiHiaw19-21" value="" style="line;strokeWidth=1;fillColor=none;align=left;verticalAlign=middle;spacingTop=-1;spacingLeft=3;spacingRight=3;rotatable=0;labelPosition=right;points=[];portConstraint=eastwest;strokeColor=inherit;fontSize=15;" parent="ATo29WEv9MndZiHiaw19-19" vertex="1">
          <mxGeometry y="26" width="160" height="8" as="geometry" />
        </mxCell>
        <mxCell id="ATo29WEv9MndZiHiaw19-22" value="&lt;div&gt;+ viewBlogs()&lt;/div&gt;" style="text;strokeColor=none;fillColor=none;align=left;verticalAlign=top;spacingLeft=4;spacingRight=4;overflow=hidden;rotatable=0;points=[[0,0.5],[1,0.5]];portConstraint=eastwest;whiteSpace=wrap;html=1;fontSize=15;" parent="ATo29WEv9MndZiHiaw19-19" vertex="1">
          <mxGeometry y="34" width="160" height="156" as="geometry" />
        </mxCell>
        <mxCell id="ATo29WEv9MndZiHiaw19-25" value="" style="endArrow=diamondThin;endFill=1;endSize=24;html=1;rounded=0;exitX=0.095;exitY=0.004;exitDx=0;exitDy=0;exitPerimeter=0;entryX=1.004;entryY=0.388;entryDx=0;entryDy=0;entryPerimeter=0;" parent="WIyWlLk6GJQsqaUBKTNV-1" source="yg45glwbb_iOi49nHkMK-62" target="yg45glwbb_iOi49nHkMK-55" edge="1">
          <mxGeometry width="160" relative="1" as="geometry">
            <mxPoint x="440" y="470" as="sourcePoint" />
            <mxPoint x="430" y="220" as="targetPoint" />
          </mxGeometry>
        </mxCell>
        <mxCell id="ATo29WEv9MndZiHiaw19-26" value="" style="endArrow=diamondThin;endFill=0;endSize=24;html=1;rounded=0;entryX=0.629;entryY=0.989;entryDx=0;entryDy=0;entryPerimeter=0;exitX=0.5;exitY=0;exitDx=0;exitDy=0;" parent="WIyWlLk6GJQsqaUBKTNV-1" source="ATo29WEv9MndZiHiaw19-1" target="yg45glwbb_iOi49nHkMK-57" edge="1">
          <mxGeometry width="160" relative="1" as="geometry">
            <mxPoint x="440" y="780" as="sourcePoint" />
            <mxPoint x="600" y="780" as="targetPoint" />
          </mxGeometry>
        </mxCell>
        <mxCell id="5-I84XrUvH4RlPe104iJ-8" value="Comment_likes" style="swimlane;fontStyle=1;align=center;verticalAlign=top;childLayout=stackLayout;horizontal=1;startSize=26;horizontalStack=0;resizeParent=1;resizeParentMax=0;resizeLast=0;collapsible=1;marginBottom=0;whiteSpace=wrap;html=1;fontSize=15;" parent="WIyWlLk6GJQsqaUBKTNV-1" vertex="1">
          <mxGeometry x="770" y="1030" width="160" height="86" as="geometry" />
        </mxCell>
        <mxCell id="5-I84XrUvH4RlPe104iJ-9" value="+ field: type" style="text;strokeColor=none;fillColor=none;align=left;verticalAlign=top;spacingLeft=4;spacingRight=4;overflow=hidden;rotatable=0;points=[[0,0.5],[1,0.5]];portConstraint=eastwest;whiteSpace=wrap;html=1;fontSize=15;" parent="5-I84XrUvH4RlPe104iJ-8" vertex="1">
          <mxGeometry y="26" width="160" height="26" as="geometry" />
        </mxCell>
        <mxCell id="5-I84XrUvH4RlPe104iJ-10" value="" style="line;strokeWidth=1;fillColor=none;align=left;verticalAlign=middle;spacingTop=-1;spacingLeft=3;spacingRight=3;rotatable=0;labelPosition=right;points=[];portConstraint=eastwest;strokeColor=inherit;fontSize=15;" parent="5-I84XrUvH4RlPe104iJ-8" vertex="1">
          <mxGeometry y="52" width="160" height="8" as="geometry" />
        </mxCell>
        <mxCell id="5-I84XrUvH4RlPe104iJ-11" value="+ method(type): type" style="text;strokeColor=none;fillColor=none;align=left;verticalAlign=top;spacingLeft=4;spacingRight=4;overflow=hidden;rotatable=0;points=[[0,0.5],[1,0.5]];portConstraint=eastwest;whiteSpace=wrap;html=1;fontSize=15;" parent="5-I84XrUvH4RlPe104iJ-8" vertex="1">
          <mxGeometry y="60" width="160" height="26" as="geometry" />
        </mxCell>
        <mxCell id="0" value="" style="endArrow=diamondThin;endFill=1;endSize=24;html=1;rounded=0;entryX=1.032;entryY=1;entryDx=0;entryDy=0;entryPerimeter=0;exitX=0.351;exitY=0.003;exitDx=0;exitDy=0;exitPerimeter=0;" parent="WIyWlLk6GJQsqaUBKTNV-1" source="yg45glwbb_iOi49nHkMK-66" target="yg45glwbb_iOi49nHkMK-57" edge="1">
          <mxGeometry width="160" relative="1" as="geometry">
            <mxPoint x="430" y="737.47" as="sourcePoint" />
            <mxPoint x="598.24" y="610.0040000000001" as="targetPoint" />
          </mxGeometry>
        </mxCell>
        <mxCell id="1" value="" style="endArrow=diamondThin;endFill=1;endSize=24;html=1;rounded=0;entryX=1.031;entryY=0.358;entryDx=0;entryDy=0;entryPerimeter=0;exitX=0.125;exitY=0.022;exitDx=0;exitDy=0;exitPerimeter=0;" parent="WIyWlLk6GJQsqaUBKTNV-1" source="yg45glwbb_iOi49nHkMK-70" target="yg45glwbb_iOi49nHkMK-57" edge="1">
          <mxGeometry width="160" relative="1" as="geometry">
            <mxPoint x="599.9200000000001" y="546.3019999999999" as="sourcePoint" />
            <mxPoint x="856.6400000000003" y="384.8439999999998" as="targetPoint" />
          </mxGeometry>
        </mxCell>
      </root>
    </mxGraphModel>
  </diagram>
</mxfile>
